<svg width="32" height="36" viewBox="0 0 32 36" fill="none" xmlns="http://www.w3.org/2000/svg">
<path d="M13.8841 4C13.8901 4.4978 13.9021 4.99559 13.9021 5.49938C13.9021 6.62092 13.9021 7.74245 13.9021 8.86399C13.9021 9.30181 13.9021 9.30183 13.4754 9.38579C11.1135 9.8596 8.75757 10.3274 6.39564 10.8012C5.41 10.9991 4.8691 11.6529 4.83304 12.6664C4.82703 12.7804 4.83304 12.8944 4.83304 13.0083C4.83304 19.4976 4.83304 25.9809 4.83304 32.4703C4.83304 32.5722 4.82703 32.6802 4.83304 32.7822C4.83905 32.9381 4.76693 33.0041 4.61067 32.9981C4.07578 32.9921 3.53489 32.9861 3 32.9801C3 25.981 3 18.9818 3 11.9827C3.01803 11.9227 3.04207 11.8568 3.0601 11.7968C3.47479 10.2014 4.50851 9.26583 6.11919 8.94797C7.88612 8.59411 9.65306 8.24626 11.42 7.88641C12.1833 7.73047 12.039 7.8864 12.051 7.1427C12.0631 6.09913 12.0631 5.04957 12.0751 4.006C12.6761 4.00001 13.2831 4 13.8841 4Z" fill="#3973B1" stroke="#3973B1" stroke-width="0.5"/>
<path d="M19.3292 4C19.3352 5.05557 19.3412 6.11113 19.3532 7.1667C19.3592 7.87441 19.2391 7.73046 19.9302 7.8744C21.7512 8.24625 23.5782 8.60011 25.3993 8.96596C27.2203 9.33181 28.4223 10.7832 28.4223 12.6424C28.4283 19.2997 28.4223 25.963 28.4223 32.6202C28.4223 32.9981 28.4223 32.9981 28.0497 32.9981C27.641 32.9981 27.2383 32.9921 26.8296 32.9981C26.6313 33.0041 26.5532 32.9261 26.5652 32.7342C26.5712 32.6322 26.5652 32.5243 26.5652 32.4223C26.5652 25.897 26.5652 19.3657 26.5652 12.8404C26.5652 12.1207 26.3789 11.4969 25.7418 11.0771C25.4534 10.8852 25.1168 10.8192 24.7863 10.7532C22.4784 10.2914 20.1766 9.8296 17.8688 9.37979C17.5863 9.32581 17.4841 9.22385 17.4841 8.92397C17.5022 7.3886 17.4901 5.84723 17.4901 4.31187C17.4901 4.20991 17.5022 4.10796 17.5082 4C18.1212 4 18.7222 4 19.3292 4Z" fill="#3973B1" stroke="#3973B1" stroke-width="0.5"/>
<path d="M7.51347 32.9981C7.30312 32.9981 7.09878 32.9861 6.88843 32.9981C6.68409 33.0101 6.60596 32.9321 6.60596 32.7222C6.59995 32.2124 6.64804 31.7146 6.79829 31.2168C7.31514 29.4715 7.80795 27.7203 8.31279 25.975C8.36688 25.7891 8.3729 25.6151 8.33684 25.4232C7.7719 22.5983 7.21298 19.7675 6.65405 16.9427C6.58794 16.6128 6.62999 16.2829 6.61797 15.9531C6.61196 15.8091 6.6901 15.7551 6.82833 15.7551C7.30913 15.7551 7.78992 15.7551 8.27072 15.7551C8.39693 15.7551 8.46305 15.8031 8.46906 15.9351C8.54118 17.5244 9.00995 19.0478 9.29242 20.6012C9.59292 22.2385 9.9415 23.8698 10.272 25.5071C10.3081 25.6871 10.2961 25.855 10.248 26.0349C9.68907 27.9661 9.14216 29.8974 8.58924 31.8226C8.5051 32.1045 8.45103 32.3924 8.47507 32.6862C8.4931 32.9141 8.41497 33.0161 8.17457 32.9981C7.94619 32.9861 7.72983 32.9981 7.51347 32.9981Z" fill="#3973B1" stroke="#3973B1" stroke-width="0.5"/>
<path d="M23.8664 32.9982C23.632 32.9982 23.3917 32.9982 23.1573 32.9982C23.0431 32.9982 22.9409 32.9802 22.9469 32.8363C22.9649 31.7927 22.5142 30.8571 22.2558 29.8795C21.9252 28.602 21.5406 27.3365 21.174 26.071C21.1139 25.8611 21.1079 25.6692 21.1499 25.4593C21.7389 22.5385 22.3159 19.6237 22.9048 16.7029C22.9529 16.469 22.9409 16.2351 22.9409 16.0012C22.9409 15.8152 23.013 15.7493 23.1933 15.7553C23.6381 15.7613 24.0828 15.7672 24.5275 15.7553C24.7439 15.7493 24.792 15.8392 24.804 16.0372C24.8581 16.8408 24.6417 17.6085 24.4915 18.3822C24.0227 20.7572 23.5419 23.1322 23.0611 25.5012C23.0311 25.6572 23.0491 25.8012 23.0911 25.9451C23.632 27.8703 24.1669 29.7955 24.7138 31.7147C24.816 32.0806 24.786 32.4404 24.792 32.8062C24.792 32.9562 24.7078 32.9982 24.5756 32.9982C24.3352 32.9922 24.1008 32.9982 23.8664 32.9982Z" fill="#3973B1" stroke="#3973B1" stroke-width="0.5"/>
<path d="M14.7736 15.7431C14.7736 14.3577 14.7796 12.9723 14.7676 11.5868C14.7676 11.305 14.8457 11.203 15.1342 11.221C15.5308 11.245 15.9275 11.239 16.3242 11.221C16.5586 11.215 16.6307 11.299 16.6307 11.5329C16.6247 13.0023 16.6247 14.4716 16.6247 15.947C16.6247 17.2965 16.6186 18.6459 16.6307 19.9894C16.6307 20.2472 16.5525 20.3372 16.2941 20.3252C15.8914 20.3072 15.4828 20.3072 15.0741 20.3252C14.8397 20.3312 14.7676 20.2473 14.7676 20.0134C14.7796 18.592 14.7736 17.1645 14.7736 15.7431Z" fill="#3973B1" stroke="#3973B1" stroke-width="0.5"/>
<path d="M14.7736 22.988C14.7736 22.7601 14.7796 22.5382 14.7736 22.3103C14.7676 22.1543 14.8337 22.0884 14.9899 22.0884C15.4587 22.0944 15.9335 22.0944 16.4023 22.0884C16.5585 22.0884 16.6246 22.1484 16.6246 22.3043C16.6186 22.7721 16.6186 23.2459 16.6246 23.7197C16.6246 23.8756 16.5645 23.9416 16.4083 23.9416C15.9395 23.9356 15.4647 23.9356 14.9959 23.9416C14.8397 23.9416 14.7736 23.8816 14.7736 23.7257C14.7796 23.4798 14.7736 23.2339 14.7736 22.988Z" fill="#3973B1" stroke="#3973B1" stroke-width="0.5"/>
<path d="M16.6248 26.6648C16.6248 26.8927 16.6188 27.1146 16.6248 27.3425C16.6308 27.4984 16.5586 27.5644 16.4084 27.5644C15.9396 27.5584 15.4648 27.5584 14.996 27.5644C14.8398 27.5644 14.7737 27.4984 14.7737 27.3485C14.7797 26.8807 14.7797 26.4069 14.7737 25.9331C14.7737 25.7772 14.8398 25.7112 14.9901 25.7112C15.4588 25.7172 15.9336 25.7172 16.4024 25.7112C16.5586 25.7112 16.6248 25.7771 16.6248 25.9271C16.6248 26.179 16.6248 26.4189 16.6248 26.6648Z" fill="#3973B1" stroke="#3973B1" stroke-width="0.5"/>
</svg>
