<svg width="36" height="36" viewBox="0 0 36 36" fill="none" xmlns="http://www.w3.org/2000/svg">
<path fill-rule="evenodd" clip-rule="evenodd" d="M18.46 8.81956C19.0388 8.81956 19.5939 8.58964 20.0031 8.18037C20.4124 7.7711 20.6423 7.21602 20.6423 6.63722C20.6423 6.05843 20.4124 5.50335 20.0031 5.09408C19.5939 4.68481 19.0388 4.45489 18.46 4.45489C17.8812 4.45489 17.3261 4.68481 16.9168 5.09408C16.5076 5.50335 16.2776 6.05843 16.2776 6.63722C16.2776 7.21602 16.5076 7.7711 16.9168 8.18037C17.3261 8.58964 17.8812 8.81956 18.46 8.81956ZM18.46 10.2744C19.4246 10.2744 20.3498 9.89124 21.0319 9.20913C21.714 8.52702 22.0972 7.60188 22.0972 6.63722C22.0972 5.67257 21.714 4.74743 21.0319 4.06532C20.3498 3.38321 19.4246 3 18.46 3C17.4953 3 16.5702 3.38321 15.8881 4.06532C15.206 4.74743 14.8228 5.67257 14.8228 6.63722C14.8228 7.60188 15.206 8.52702 15.8881 9.20913C16.5702 9.89124 17.4953 10.2744 18.46 10.2744V10.2744Z" fill="#3973B1" stroke="#3973B1" stroke-width="0.5"/>
<path fill-rule="evenodd" clip-rule="evenodd" d="M13.6397 13.4127C13.9725 13.476 14.2728 13.6536 14.4887 13.9146C14.7047 14.1757 14.8227 14.504 14.8225 14.8428V29.9155C14.8225 30.1084 14.8991 30.2934 15.0355 30.4299C15.172 30.5663 15.357 30.6429 15.5499 30.6429H15.6132C15.7948 30.6429 15.9699 30.575 16.1039 30.4525C16.238 30.33 16.3214 30.1618 16.3378 29.9809L17.0048 22.641C17.0048 22.2552 17.1581 21.8851 17.4309 21.6123C17.7038 21.3394 18.0738 21.1861 18.4597 21.1861C18.8456 21.1861 19.2156 21.3394 19.4885 21.6123C19.7613 21.8851 19.9146 22.2552 19.9146 22.641L20.5817 29.9809C20.598 30.1618 20.6814 30.33 20.8155 30.4525C20.9496 30.575 21.1246 30.6429 21.3062 30.6429H21.3695C21.5624 30.6429 21.7474 30.5663 21.8839 30.4299C22.0203 30.2934 22.0969 30.1084 22.0969 29.9155V14.8697C22.0969 14.531 22.215 14.2029 22.4309 13.942C22.6468 13.6811 22.947 13.5036 23.2798 13.4403C24.5572 13.1973 25.908 12.8605 27.3927 12.4277C27.4844 12.401 27.57 12.3564 27.6445 12.2966C27.719 12.2368 27.7809 12.1629 27.8269 12.0791C27.8728 11.9954 27.9018 11.9034 27.9122 11.8084C27.9226 11.7135 27.9141 11.6174 27.8874 11.5257C27.8606 11.434 27.8161 11.3484 27.7563 11.2739C27.6965 11.1994 27.6226 11.1375 27.5388 11.0915C27.4551 11.0456 27.3631 11.0166 27.2681 11.0062C27.1731 10.9958 27.0771 11.0043 26.9854 11.031C23.6144 12.0131 21.0276 12.4684 18.4626 12.4568C15.8947 12.4452 13.305 11.9665 9.9246 11.0288C9.83191 11.0012 9.73464 10.9923 9.63848 11.0027C9.54232 11.0131 9.4492 11.0426 9.36457 11.0894C9.27994 11.1362 9.20549 11.1995 9.14559 11.2754C9.08569 11.3513 9.04153 11.4385 9.0157 11.5317C8.98987 11.6249 8.98289 11.7223 8.99516 11.8182C9.00743 11.9142 9.03872 12.0067 9.08718 12.0904C9.13564 12.1741 9.20031 12.2473 9.27739 12.3057C9.35448 12.3641 9.44245 12.4066 9.53614 12.4306C11.015 12.8409 12.363 13.1697 13.6397 13.4127V13.4127ZM17.7163 30.4996C17.5886 30.9592 17.3138 31.3644 16.934 31.653C16.5542 31.9416 16.0903 32.0979 15.6132 32.0978H15.5499C14.9711 32.0978 14.4161 31.8679 14.0068 31.4586C13.5975 31.0493 13.3676 30.4943 13.3676 29.9155V14.8428C12.0393 14.5897 10.6506 14.2492 9.14696 13.8317C8.86506 13.7603 8.60026 13.6334 8.36812 13.4583C8.13597 13.2832 7.94117 13.0634 7.79514 12.812C7.64911 12.5605 7.55481 12.2824 7.51777 11.994C7.48074 11.7056 7.50171 11.4127 7.57947 11.1325C7.65723 10.8523 7.7902 10.5904 7.97056 10.3624C8.15093 10.1343 8.37507 9.94453 8.62979 9.80429C8.88452 9.66404 9.16471 9.57612 9.4539 9.54568C9.74308 9.51524 10.0354 9.5429 10.3138 9.62704C13.6382 10.5487 16.0861 10.991 18.4692 11.0019C20.845 11.0121 23.2834 10.5945 26.5787 9.63431C26.8552 9.54967 27.1456 9.5208 27.4333 9.54937C27.721 9.57793 28.0001 9.66338 28.2545 9.80073C28.5089 9.93809 28.7335 10.1246 28.9152 10.3495C29.0968 10.5744 29.232 10.8331 29.3129 11.1106C29.3938 11.3882 29.4187 11.6791 29.3862 11.9663C29.3537 12.2536 29.2644 12.5315 29.1236 12.784C28.9828 13.0365 28.7932 13.2585 28.5659 13.4371C28.3386 13.6157 28.078 13.7473 27.7994 13.8244C26.2834 14.2667 24.886 14.6159 23.5518 14.8697V29.9155C23.5518 30.4943 23.3219 31.0493 22.9126 31.4586C22.5034 31.8679 21.9483 32.0978 21.3695 32.0978H21.3062C20.7616 32.0979 20.2367 31.8943 19.8345 31.5271C19.4323 31.16 19.182 30.6557 19.1326 30.1133L18.4655 22.7734C18.4617 22.7306 18.4598 22.6876 18.4597 22.6447C18.4597 22.6876 18.4575 22.7298 18.4539 22.7727L17.7861 30.1126C17.7743 30.2434 17.7509 30.3729 17.7163 30.4996V30.4996Z" fill="#3973B1" stroke="#3973B1" stroke-width="0.5"/>
</svg>
