<svg width="36" height="36" viewBox="0 0 36 36" fill="none" xmlns="http://www.w3.org/2000/svg">
<path d="M9.18314 5.84375C9.18314 5.61997 9.27203 5.40536 9.43026 5.24713C9.5885 5.08889 9.80311 5 10.0269 5H26.9019C27.1257 5 27.3403 5.08889 27.4985 5.24713C27.6567 5.40536 27.7456 5.61997 27.7456 5.84375C27.7456 6.75162 27.7254 7.61563 27.6883 8.43575C28.355 8.54616 28.993 8.78898 29.5644 9.14987C30.1359 9.51076 30.6293 9.98242 31.0155 10.537C31.4018 11.0917 31.6731 11.718 31.8134 12.3791C31.9537 13.0403 31.9602 13.7228 31.8326 14.3865C31.7049 15.0502 31.4456 15.6816 31.07 16.2435C30.6945 16.8054 30.2102 17.2864 29.6457 17.6582C29.0813 18.0299 28.4481 18.2849 27.7835 18.408C27.119 18.5311 26.4365 18.52 25.7763 18.3751C24.4432 21.5223 22.6072 23.0613 20.9956 23.4562V27.1231L23.4003 27.7239C23.7277 27.8049 24.0365 27.9517 24.3065 28.1542L27.4081 30.4813C27.5498 30.5875 27.6545 30.7356 27.7073 30.9047C27.7601 31.0737 27.7583 31.2551 27.7023 31.4231C27.6463 31.5911 27.5389 31.7372 27.3952 31.8407C27.2516 31.9443 27.079 32 26.9019 32H10.0269C9.8498 32 9.6772 31.9443 9.53354 31.8407C9.38987 31.7372 9.28243 31.5911 9.22643 31.4231C9.17043 31.2551 9.16871 31.0737 9.22151 30.9047C9.27432 30.7356 9.37896 30.5875 9.52064 30.4813L12.6223 28.1542C12.8923 27.9517 13.2011 27.8049 13.5284 27.7239L15.9331 27.1231V23.4562C14.3216 23.0613 12.4856 21.5223 11.1524 18.3734C10.4919 18.5191 9.80894 18.5308 9.1438 18.4081C8.47866 18.2854 7.84486 18.0306 7.27983 17.6588C6.71479 17.287 6.22999 16.8058 5.85405 16.2435C5.4781 15.6813 5.21864 15.0494 5.09098 14.3851C4.96333 13.7209 4.97007 13.0379 5.1108 12.3763C5.25154 11.7147 5.52341 11.0881 5.91038 10.5333C6.29734 9.97858 6.79155 9.507 7.3638 9.14645C7.93606 8.78589 8.57476 8.54366 9.2422 8.43406C9.20247 7.5712 9.18278 6.70753 9.18314 5.84375V5.84375ZM9.3502 10.13C8.46964 10.2911 7.68915 10.7954 7.18043 11.532C6.6717 12.2686 6.47642 13.1771 6.63754 14.0577C6.79866 14.9382 7.30298 15.7187 8.03956 16.2274C8.77614 16.7362 9.68464 16.9314 10.5652 16.7703C10.0033 14.9984 9.57295 12.8114 9.3502 10.13V10.13ZM26.3653 16.7703C27.2458 16.9314 28.1543 16.7362 28.8909 16.2274C29.6275 15.7187 30.1318 14.9382 30.2929 14.0577C30.454 13.1771 30.2588 12.2686 29.75 11.532C29.2413 10.7954 28.4608 10.2911 27.5803 10.13C27.3558 12.8131 26.9255 14.9984 26.3653 16.7703ZM10.8774 6.6875C10.8892 7.55994 10.9213 8.38513 10.9719 9.16644C11.1913 12.5887 11.7431 15.1503 12.44 17.042C13.898 20.9975 15.9061 21.875 16.7769 21.875C17.0007 21.875 17.2153 21.9639 17.3735 22.1221C17.5317 22.2804 17.6206 22.495 17.6206 22.7188V27.1231C17.6206 27.4993 17.4949 27.8647 17.2635 28.1613C17.032 28.4579 16.7081 28.6686 16.3432 28.76L13.9368 29.3607C13.8276 29.3879 13.7249 29.4367 13.6348 29.5042L12.5581 30.3125H24.3706L23.294 29.5042C23.2034 29.4365 23.1001 29.3878 22.9903 29.3607L20.5856 28.76C20.2207 28.6686 19.8967 28.4579 19.6653 28.1613C19.4339 27.8647 19.3081 27.4993 19.3081 27.1231V22.7188C19.3081 22.495 19.397 22.2804 19.5553 22.1221C19.7135 21.9639 19.9281 21.875 20.1519 21.875C21.0226 21.875 23.0308 20.9975 24.4888 17.042C25.1857 15.152 25.7375 12.587 25.9569 9.16644C26.0075 8.38513 26.0396 7.55994 26.0514 6.6875H10.8774V6.6875Z" fill="#3973B1" stroke="#3973B1" stroke-width="0.5"/>
</svg>
