<svg width="36" height="36" viewBox="0 0 36 36" fill="none" xmlns="http://www.w3.org/2000/svg">
<path d="M29.0629 4.64344C29.178 4.72045 29.2724 4.82462 29.3377 4.94676C29.4031 5.06889 29.4373 5.20524 29.4375 5.34375V18C29.4375 18.1685 29.387 18.3331 29.2925 18.4727C29.1981 18.6122 29.064 18.7203 28.9076 18.783L28.5938 18L28.9076 18.783L28.9026 18.7847L28.8924 18.7898L28.8536 18.8049C28.6318 18.8931 28.4084 18.9775 28.1837 19.0581C27.7382 19.2184 27.1189 19.4344 26.4169 19.6487C25.0399 20.0739 23.2461 20.5312 21.8438 20.5312C20.4144 20.5312 19.2315 20.0588 18.2021 19.6453L18.1549 19.6284C17.085 19.1981 16.1737 18.8438 15.0938 18.8438C13.9125 18.8438 12.3296 19.2319 10.9813 19.6487C10.3776 19.8368 9.77943 20.0422 9.1875 20.2646V30.6562C9.1875 30.88 9.09861 31.0946 8.94037 31.2529C8.78214 31.4111 8.56753 31.5 8.34375 31.5C8.11997 31.5 7.90536 31.4111 7.74713 31.2529C7.58889 31.0946 7.5 30.88 7.5 30.6562V5.34375C7.5 5.11997 7.58889 4.90536 7.74713 4.74713C7.90536 4.58889 8.11997 4.5 8.34375 4.5C8.56753 4.5 8.78214 4.58889 8.94037 4.74713C9.09861 4.90536 9.1875 5.11997 9.1875 5.34375V5.81963C9.56887 5.68631 10.0245 5.53275 10.5206 5.38088C11.8976 4.959 13.6931 4.5 15.0938 4.5C16.5112 4.5 17.6655 4.96744 18.6729 5.37581L18.7455 5.40619C19.7951 5.82975 20.7098 6.1875 21.8438 6.1875C23.025 6.1875 24.6079 5.79937 25.9562 5.38256C26.7245 5.14262 27.4838 4.87469 28.2326 4.57931L28.2647 4.5675L28.2714 4.56412H28.2731L29.0629 4.64344ZM27.75 6.56044C27.3788 6.69206 26.94 6.84225 26.4574 6.99075C25.0905 7.416 23.2984 7.87331 21.8438 7.87331C20.3486 7.87331 19.1572 7.39069 18.1262 6.97219L18.1127 6.96713C17.0546 6.54188 16.1721 6.1875 15.0938 6.1875C13.9648 6.1875 12.3836 6.57394 11.0184 6.99413C10.4027 7.18411 9.79215 7.39062 9.1875 7.61344V18.4691C9.55875 18.3375 9.9975 18.1873 10.4801 18.0388C11.847 17.6119 13.6391 17.1562 15.0938 17.1562C16.5231 17.1562 17.706 17.6287 18.7354 18.0422L18.7826 18.0591C19.8525 18.4894 20.7638 18.8438 21.8438 18.8438C22.971 18.8438 24.5539 18.4573 25.9191 18.0371C26.5348 17.8471 27.1453 17.6406 27.75 17.4178V6.56213V6.56044Z" fill="#3973B1" stroke="#3973B1"/>
</svg>
