<?xml version="1.0" encoding="UTF-8"?><svg id="Camada_1" xmlns="http://www.w3.org/2000/svg" viewBox="0 0 326.74 30.43"><defs><style>.cls-1{fill:#000;stroke-width:0px;}</style></defs><path class="cls-1" d="M12.91,2.87c-.94,0-1.69.76-1.69,1.69v17.2l-5.58-5.58c-.66-.66-1.74-.66-2.4,0-.66.66-.66,1.74,0,2.4l8.47,8.47h0c.66.66,1.74.66,2.4,0l8.47-8.47c.66-.66.66-1.74,0-2.4s-1.74-.66-2.4,0l-5.58,5.59V6.26h306v19.6c0,.94.76,1.69,1.7,1.69s1.69-.76,1.69-1.69V4.57c0-.94-.76-1.69-1.69-1.69H13.11s-.07,0-.1,0c-.03,0-.06,0-.1,0Z"/></svg>