<?xml version="1.0" encoding="UTF-8"?><svg id="Camada_1" xmlns="http://www.w3.org/2000/svg" viewBox="0 0 63.2 189.84"><defs><style>.cls-1{fill:#000;stroke-width:0px;}</style></defs><path class="cls-1" d="M58.94,22.96c0-.94-.76-1.69-1.69-1.69H10.05l5.58-5.58c.66-.66.66-1.74,0-2.4-.66-.66-1.74-.66-2.4,0l-8.47,8.47h0c-.66.67-.66,1.74,0,2.4l8.47,8.47c.66.66,1.74.66,2.4,0s.66-1.74,0-2.4l-5.59-5.58h45.51v149H5.95c-.94,0-1.69.76-1.69,1.7s.76,1.69,1.69,1.69h51.29c.94,0,1.69-.76,1.69-1.69V23.16s0-.07,0-.1c0-.03,0-.06,0-.1Z"/></svg>