<?xml version="1.0" encoding="UTF-8"?><svg id="Camada_1" xmlns="http://www.w3.org/2000/svg" viewBox="0 0 179.7 68.12"><defs><style>.cls-1{fill:#000;stroke-width:0px;}</style></defs><path class="cls-1" d="M151.81,6.72c.94,0,1.69.76,1.69,1.69v47.2s5.58-5.58,5.58-5.58c.66-.66,1.74-.66,2.4,0,.66.66.66,1.74,0,2.4l-8.47,8.47h0c-.66.66-1.74.66-2.4,0l-8.47-8.47c-.66-.66-.66-1.74,0-2.4s1.74-.66,2.4,0l5.58,5.59V10.11H21.11v49.6c0,.94-.76,1.69-1.7,1.69s-1.69-.76-1.69-1.69V8.41c0-.94.76-1.69,1.69-1.69h132.19s.07,0,.1,0c.03,0,.06,0,.1,0Z"/></svg>